<svg id="Layer_1" data-name="Layer 1" xmlns="http://www.w3.org/2000/svg" xmlns:xlink="http://www.w3.org/1999/xlink" viewBox="0 0 560.62 852.89"><defs><clipPath id="clip-path" transform="translate(-15.69 0.44)"><path d="M18.54,258.7S72.62.06,289,.06,573.46,258.7,573.46,258.7V841.83H18.54Z" fill="none"/></clipPath></defs><path d="M18.54,258.7S72.62.06,289,.06,573.46,258.7,573.46,258.7V841.83H18.54Z" transform="translate(-15.69 0.44)" fill="#754c29" stroke="#231f20" stroke-miterlimit="10"/><g clip-path="url(#clip-path)"><rect x="0.5" y="0.5" width="4.7" height="851.89" fill="#754c29" stroke="#231f20" stroke-miterlimit="10"/><polygon points="69.86 0.5 74.57 0.5 74.57 852.39 69.86 852.39 69.86 195.41 69.86 0.5" fill="#754c29" stroke="#231f20" stroke-miterlimit="10"/><polygon points="139.23 0.5 143.93 0.5 143.93 852.39 139.23 852.39 139.23 195.41 139.23 0.5" fill="#754c29" stroke="#231f20" stroke-miterlimit="10"/><polygon points="208.59 0.5 213.3 0.5 213.3 852.39 208.59 852.39 208.59 195.41 208.59 0.5" fill="#754c29" stroke="#231f20" stroke-miterlimit="10"/><polygon points="277.96 0.5 282.66 0.5 282.66 852.39 277.96 852.39 277.96 195.42 277.96 0.5" fill="#754c29" stroke="#231f20" stroke-miterlimit="10"/><polygon points="347.32 0.5 352.02 0.5 352.02 852.39 347.32 852.39 347.32 195.42 347.32 0.5" fill="#754c29" stroke="#231f20" stroke-miterlimit="10"/><polygon points="416.69 0.5 421.39 0.5 421.39 852.39 416.69 852.39 416.69 195.42 416.69 0.5" fill="#754c29" stroke="#231f20" stroke-miterlimit="10"/><polygon points="486.05 0.5 490.75 0.5 490.75 852.39 486.05 852.39 486.05 195.42 486.05 0.5" fill="#754c29" stroke="#231f20" stroke-miterlimit="10"/><polygon points="560.12 852.39 555.42 852.39 555.42 195.42 555.42 0.5 560.12 0.5 560.12 852.39" fill="#754c29" stroke="#231f20" stroke-miterlimit="10"/></g><circle cx="495.23" cy="425.49" r="40.44" fill="#fcee21"/></svg>