<svg xmlns="http://www.w3.org/2000/svg" viewBox="0 0 541 131"><g id="Layer_2" data-name="Layer 2"><g id="Layer_1-2" data-name="Layer 1"><rect x="27.29" y="9.5" width="488.21" height="112" fill="#fff"/><path d="M492.23.5H48.77A48.27,48.27,0,0,0,.5,48.77V82.23A48.27,48.27,0,0,0,48.77,130.5H492.23A48.27,48.27,0,0,0,540.5,82.23V48.77A48.27,48.27,0,0,0,492.23.5Zm21.27,83a31,31,0,0,1-31,31h-421a31,31,0,0,1-31-31v-38a31,31,0,0,1,31-31h421a31,31,0,0,1,31,31Z" stroke="#231f20" stroke-miterlimit="10"/><line x1="27.79" y1="13.74" x2="26.79" y2="113.74" fill="none" stroke="#231f20" stroke-miterlimit="10"/><line x1="89.53" y1="14.01" x2="88.53" y2="114.01" fill="none" stroke="#231f20" stroke-miterlimit="10"/><line x1="151.28" y1="14.28" x2="150.28" y2="114.28" fill="none" stroke="#231f20" stroke-miterlimit="10"/><line x1="213.02" y1="14.56" x2="212.02" y2="114.56" fill="none" stroke="#231f20" stroke-miterlimit="10"/><line x1="274.77" y1="14.83" x2="273.77" y2="114.83" fill="none" stroke="#231f20" stroke-miterlimit="10"/><line x1="336.51" y1="15.1" x2="335.51" y2="115.1" fill="none" stroke="#231f20" stroke-miterlimit="10"/><line x1="398.25" y1="15.37" x2="397.25" y2="115.37" fill="none" stroke="#231f20" stroke-miterlimit="10"/><line x1="460" y1="15.64" x2="459" y2="115.64" fill="none" stroke="#231f20" stroke-miterlimit="10"/></g></g></svg>